<svg version="1.1" id="Layer_1" xmlns="http://www.w3.org/2000/svg" xmlns:xlink="http://www.w3.org/1999/xlink" x="0px" y="0px"
	 width="100%" viewBox="0 0 271 198" enable-background="new 0 0 271 198" xml:space="preserve">
<path fill="#FDFDFD" opacity="1.000000" stroke="none" 
	d="
M272.000000,70.000000 
	C272.000000,113.333336 272.000000,156.166672 272.000000,199.000000 
	C181.666672,199.000000 91.333336,199.000000 1.000000,199.000000 
	C1.000000,133.000000 1.000000,67.000000 1.000000,1.000000 
	C91.333336,1.000000 181.666672,1.000000 272.000000,1.000000 
	C272.000000,23.833334 272.000000,46.666668 272.000000,70.000000 
M187.499573,187.517044 
	C203.662018,187.521515 219.824478,187.525696 235.986923,187.530533 
	C250.148575,187.534760 260.744537,177.862442 260.814819,163.809036 
	C261.026489,121.487465 261.044128,79.162819 260.757324,36.841957 
	C260.654114,21.606716 249.795914,11.251550 234.593994,11.222622 
	C168.445587,11.096745 102.296860,11.071790 36.148323,11.119423 
	C22.667690,11.129129 12.708520,20.768801 12.243856,34.188499 
	C11.926967,43.340450 12.056706,52.515591 12.247310,61.674942 
	C12.399188,68.973305 17.737473,74.317802 25.189726,74.940002 
	C27.621096,75.142998 30.083698,74.971909 33.066341,74.971909 
	C33.066341,77.449059 33.060974,79.236740 33.067150,81.024391 
	C33.159279,107.684090 33.203014,134.344162 33.400562,161.003098 
	C33.429878,164.958984 33.600368,169.086517 34.729832,172.825211 
	C37.000229,180.340576 44.285519,187.680130 56.533073,187.600220 
	C99.853561,187.317642 143.177139,187.508072 187.499573,187.517044 
z"/>
<path fill="#0F0F0F" opacity="1.000000" stroke="none" 
	d="
M186.999557,187.518112 
	C143.177139,187.508072 99.853561,187.317642 56.533073,187.600220 
	C44.285519,187.680130 37.000229,180.340576 34.729832,172.825211 
	C33.600368,169.086517 33.429878,164.958984 33.400562,161.003098 
	C33.203014,134.344162 33.159279,107.684090 33.067150,81.024391 
	C33.060974,79.236740 33.066341,77.449059 33.066341,74.971909 
	C30.083698,74.971909 27.621096,75.142998 25.189726,74.940002 
	C17.737473,74.317802 12.399188,68.973305 12.247310,61.674942 
	C12.056706,52.515591 11.926967,43.340450 12.243856,34.188499 
	C12.708520,20.768801 22.667690,11.129129 36.148323,11.119423 
	C102.296860,11.071790 168.445587,11.096745 234.593994,11.222622 
	C249.795914,11.251550 260.654114,21.606716 260.757324,36.841957 
	C261.044128,79.162819 261.026489,121.487465 260.814819,163.809036 
	C260.744537,177.862442 250.148575,187.534760 235.986923,187.530533 
	C219.824478,187.525696 203.662018,187.521515 186.999557,187.518112 
M178.499954,177.240387 
	C196.999100,177.236557 215.498291,177.211090 233.997391,177.236862 
	C245.562439,177.252975 250.682953,172.208572 250.705139,160.560242 
	C250.781021,120.728912 250.844543,80.897545 250.893173,41.066166 
	C250.910492,26.878895 245.120438,21.139248 230.783447,21.133327 
	C168.626923,21.107664 106.470413,21.098450 44.313892,21.083307 
	C42.898376,21.082962 41.482861,21.083261 38.628590,21.083261 
	C45.668121,27.712481 43.486748,35.152584 43.511749,42.049255 
	C43.654938,81.547577 43.737926,121.048035 43.445446,160.544830 
	C43.359055,172.211182 46.254772,177.583069 60.004601,177.413742 
	C99.164482,176.931488 138.334137,177.241898 178.499954,177.240387 
M23.335226,63.199596 
	C26.315620,64.043571 29.296015,64.887543 32.963120,65.925980 
	C32.963120,62.878044 32.963116,61.087097 32.963116,59.296146 
	C32.963116,57.508053 32.963120,55.719963 32.963120,54.001541 
	C23.036930,52.788887 20.742989,54.845741 23.335226,63.199596 
z"/>
<path fill="#FBFBFB" opacity="1.000000" stroke="none" 
	d="
M177.999939,177.240387 
	C138.334137,177.241898 99.164482,176.931488 60.004601,177.413742 
	C46.254772,177.583069 43.359055,172.211182 43.445446,160.544830 
	C43.737926,121.048035 43.654938,81.547577 43.511749,42.049255 
	C43.486748,35.152584 45.668121,27.712481 38.628590,21.083261 
	C41.482861,21.083261 42.898376,21.082962 44.313892,21.083307 
	C106.470413,21.098450 168.626923,21.107664 230.783447,21.133327 
	C245.120438,21.139248 250.910492,26.878895 250.893173,41.066166 
	C250.844543,80.897545 250.781021,120.728912 250.705139,160.560242 
	C250.682953,172.208572 245.562439,177.252975 233.997391,177.236862 
	C215.498291,177.211090 196.999100,177.236557 177.999939,177.240387 
M143.309128,106.753441 
	C143.309128,106.753441 143.302673,106.732895 143.793320,107.618034 
	C150.196869,107.612640 156.600418,107.607246 163.890640,107.772339 
	C173.295593,107.797997 173.292007,107.797104 174.987305,100.987961 
	C175.057739,100.705093 175.313858,100.468445 175.557388,100.097725 
	C178.788803,100.097725 182.078384,100.097725 185.565536,100.097725 
	C186.313431,102.661430 187.033142,105.128494 187.716568,107.471191 
	C190.620529,107.471191 193.202591,107.471191 196.364090,107.471191 
	C192.721603,93.113869 189.188950,79.189445 185.623016,65.133842 
	C181.913834,65.133842 178.485016,65.133842 174.588837,65.133842 
	C172.075241,76.025703 169.661163,86.853928 167.011444,97.624168 
	C166.542847,99.528877 165.091385,101.191780 164.034576,102.095680 
	C163.457764,101.363762 162.930893,100.060448 162.294983,100.004883 
	C160.217972,99.823372 158.101212,100.096718 155.260574,100.015205 
	C154.507126,100.075836 153.753677,100.136467 152.297409,99.890709 
	C153.128616,97.259087 153.959839,94.627457 155.271866,91.473656 
	C158.885345,82.913429 165.873642,75.496399 164.827789,65.244354 
	C156.274780,65.244354 148.361816,65.244354 140.489349,65.244354 
	C140.489349,67.972641 140.489349,70.366989 140.489349,73.093903 
	C145.081268,73.093903 149.345352,73.093903 154.178604,73.093903 
	C151.681641,78.301941 149.423691,83.011452 146.758499,88.217720 
	C144.487198,92.763008 142.215912,97.308296 139.536285,101.955544 
	C139.536285,101.955544 139.115417,101.957123 138.961014,101.424110 
	C138.801651,100.905151 138.642288,100.386185 138.520950,99.160164 
	C138.145432,98.059639 137.769928,96.959106 137.388458,95.123436 
	C137.201233,94.415543 137.014008,93.707649 136.891891,92.304955 
	C136.529449,91.203491 136.167007,90.102036 135.912323,88.217743 
	C133.935242,80.526054 131.958160,72.834373 130.007767,65.246506 
	C126.277206,65.246506 122.854584,65.246506 119.504303,65.246506 
	C115.867142,79.481079 112.312065,93.394417 108.696472,107.544571 
	C111.997734,107.544571 114.766403,107.544571 117.506416,107.544571 
	C118.205200,104.921974 118.833275,102.564789 119.485069,100.118546 
	C122.993195,100.118546 126.273323,100.118546 128.907913,100.118546 
	C131.880157,102.201836 128.159378,107.804047 134.819122,107.755348 
	C136.207230,107.622269 137.595322,107.489189 139.541672,107.489120 
	C140.771622,107.261284 142.001572,107.033447 143.309128,106.753441 
M168.134750,141.820175 
	C167.820480,140.156952 166.933838,138.354248 167.298782,136.856522 
	C168.413605,132.281052 166.892715,129.154572 162.137177,128.536148 
	C158.611710,128.077698 154.978714,128.445969 151.343002,128.445969 
	C151.343002,135.849045 151.343002,142.774399 151.343002,150.081924 
	C154.372772,150.081924 157.172287,150.095367 159.971649,150.079285 
	C167.130493,150.038162 168.242493,148.974380 169.531433,141.722702 
	C169.959930,142.790207 170.282623,143.916138 170.834503,144.915497 
	C173.851868,150.379242 180.699066,152.258209 186.264008,149.200287 
	C191.553925,146.293503 193.497498,139.738419 190.727036,134.147812 
	C188.142990,128.933395 181.213608,126.677017 175.825989,129.298981 
	C170.561142,131.861206 169.518646,136.782288 168.134750,141.820175 
M228.912094,146.481628 
	C228.912094,150.056534 228.912094,153.631439 228.912094,157.466934 
	C202.996521,157.466934 177.844162,157.629654 152.697174,157.334015 
	C147.468338,157.272522 145.413177,159.409653 144.395203,163.935577 
	C174.788666,163.935577 204.906570,163.935577 235.175995,163.935577 
	C235.175995,121.135857 235.175995,78.550873 235.175995,35.662560 
	C177.039825,35.662560 119.202698,35.662560 61.375931,35.662560 
	C61.375931,78.729759 61.375931,121.312080 61.375931,164.132614 
	C82.052513,164.132614 102.368309,163.941849 122.675858,164.266510 
	C127.763496,164.347839 129.754517,162.282410 130.673294,157.433014 
	C109.739922,157.433014 89.012604,157.433014 68.012360,157.433014 
	C68.012360,120.129364 68.012360,83.242325 68.012360,46.207863 
	C121.749390,46.207863 175.270996,46.207863 228.912903,46.207863 
	C228.912903,79.534683 228.912903,112.509842 228.912094,146.481628 
M85.605171,122.966087 
	C128.251007,122.987968 170.897324,122.920464 213.542007,123.152824 
	C218.482391,123.179749 220.893570,121.645012 221.545670,116.420349 
	C220.301056,116.420349 219.197098,116.421143 218.093155,116.420235 
	C173.781555,116.384003 129.469421,116.441261 85.159073,116.186523 
	C79.928185,116.156448 78.375771,118.620659 77.320351,122.973732 
	C79.992241,122.973732 82.320084,122.973732 85.605171,122.966087 
M93.583778,64.916962 
	C91.165802,64.916962 88.747818,64.916962 86.527054,64.916962 
	C86.527054,68.070770 86.527054,70.470230 86.527054,73.311348 
	C89.639595,73.311348 92.384407,73.311348 95.575821,73.311348 
	C95.575821,85.010269 95.575821,96.258675 95.575821,107.439514 
	C98.783798,107.439514 101.520607,107.439514 104.734985,107.439514 
	C104.734985,95.868309 104.734985,84.642693 104.734985,72.981918 
	C107.967255,72.981918 110.712700,72.981918 113.655197,72.981918 
	C113.655197,70.139099 113.655197,67.746033 113.655197,64.916405 
	C107.128387,64.916405 100.844391,64.916405 93.583778,64.916962 
M135.977219,128.133331 
	C135.202209,128.423660 134.413116,128.681366 133.654434,129.009491 
	C127.641479,131.610001 125.272453,137.514496 127.682388,143.861847 
	C129.844177,149.555603 135.305603,152.017441 141.438644,150.062683 
	C146.786972,148.358063 149.653625,143.559143 148.880234,137.605148 
	C148.158676,132.050201 143.729553,128.544861 135.977219,128.133331 
M210.367661,147.726013 
	C209.205093,145.787445 208.042542,143.848877 206.879974,141.910324 
	C207.469849,141.957565 208.059723,142.004807 208.649597,142.052048 
	C209.445724,138.990738 211.213852,135.789078 210.797134,132.902878 
	C210.250031,129.113602 206.296280,128.486893 202.879288,128.318207 
	C199.984314,128.175293 197.076675,128.288757 194.118637,128.288757 
	C194.118637,135.867889 194.118637,142.795898 194.118637,149.788300 
	C195.712784,149.788300 197.100845,149.788300 198.642624,149.788300 
	C198.819656,147.317337 198.976959,145.121475 199.253342,141.263809 
	C201.668549,144.457077 203.143341,146.468674 204.683990,148.428467 
	C206.653870,150.934250 209.623703,150.867737 210.367661,147.726013 
M113.738884,140.957352 
	C115.667664,140.957352 117.596443,140.957352 119.954208,140.957352 
	C119.954208,144.334229 119.954208,147.087433 119.954208,150.083862 
	C121.656967,149.972992 122.903679,149.891815 124.143219,149.811111 
	C124.143219,142.468414 124.143219,135.411667 124.143219,128.094742 
	C122.551346,128.211838 121.324783,128.302063 120.018997,128.398117 
	C119.895607,131.166046 119.788460,133.569641 119.684074,135.911148 
	C116.739098,135.911148 114.308609,135.911148 111.737061,135.911148 
	C111.545044,133.209869 111.373260,130.793198 111.180435,128.080521 
	C109.489059,128.198837 108.086617,128.296951 106.555695,128.404053 
	C106.555695,135.693069 106.555695,142.620819 106.555695,149.794922 
	C108.158791,149.794922 109.531960,149.794922 110.420181,149.794922 
	C111.286102,146.616379 112.054665,143.795197 113.738884,140.957352 
M101.482948,145.021790 
	C99.703278,142.665726 97.923607,140.309662 96.086853,137.878036 
	C98.879990,134.676987 101.494728,131.680389 104.354156,128.403381 
	C96.674515,126.987244 95.320824,134.237350 90.390350,137.239502 
	C90.390350,133.898209 90.390350,131.125092 90.390350,128.351990 
	C89.999146,128.044907 89.607941,127.737823 89.216743,127.430740 
	C88.061905,128.460831 85.960815,129.444580 85.907722,130.528625 
	C85.592735,136.960327 85.752228,143.415253 85.752228,150.112534 
	C87.627739,149.952438 88.865242,149.846786 89.849007,149.762817 
	C90.427246,146.878876 90.917114,144.435669 91.520828,141.424713 
	C96.446716,144.531906 97.060951,152.544220 104.716721,149.576385 
	C103.778252,148.220566 102.861610,146.896301 101.482948,145.021790 
z"/>
<path fill="#F7F7F7" opacity="1.000000" stroke="none" 
	d="
M23.086311,62.868408 
	C20.742989,54.845741 23.036930,52.788887 32.963120,54.001541 
	C32.963120,55.719963 32.963116,57.508053 32.963116,59.296146 
	C32.963116,61.087097 32.963120,62.878044 32.963120,65.925980 
	C29.296015,64.887543 26.315620,64.043571 23.086311,62.868408 
z"/>
<path fill="#131313" opacity="1.000000" stroke="none" 
	d="
M228.912506,145.983307 
	C228.912903,112.509842 228.912903,79.534683 228.912903,46.207863 
	C175.270996,46.207863 121.749390,46.207863 68.012360,46.207863 
	C68.012360,83.242325 68.012360,120.129364 68.012360,157.433014 
	C89.012604,157.433014 109.739922,157.433014 130.673294,157.433014 
	C129.754517,162.282410 127.763496,164.347839 122.675858,164.266510 
	C102.368309,163.941849 82.052513,164.132614 61.375931,164.132614 
	C61.375931,121.312080 61.375931,78.729759 61.375931,35.662560 
	C119.202698,35.662560 177.039825,35.662560 235.175995,35.662560 
	C235.175995,78.550873 235.175995,121.135857 235.175995,163.935577 
	C204.906570,163.935577 174.788666,163.935577 144.395203,163.935577 
	C145.413177,159.409653 147.468338,157.272522 152.697174,157.334015 
	C177.844162,157.629654 202.996521,157.466934 228.912094,157.466934 
	C228.912094,153.631439 228.912094,150.056534 228.912506,145.983307 
z"/>
<path fill="#181818" opacity="1.000000" stroke="none" 
	d="
M85.126541,122.969910 
	C82.320084,122.973732 79.992241,122.973732 77.320351,122.973732 
	C78.375771,118.620659 79.928185,116.156448 85.159073,116.186523 
	C129.469421,116.441261 173.781555,116.384003 218.093155,116.420235 
	C219.197098,116.421143 220.301056,116.420349 221.545670,116.420349 
	C220.893570,121.645012 218.482391,123.179749 213.542007,123.152824 
	C170.897324,122.920464 128.251007,122.987968 85.126541,122.969910 
z"/>
<path fill="#101010" opacity="1.000000" stroke="none" 
	d="
M164.093796,102.966354 
	C165.091385,101.191780 166.542847,99.528877 167.011444,97.624168 
	C169.661163,86.853928 172.075241,76.025703 174.588837,65.133842 
	C178.485016,65.133842 181.913834,65.133842 185.623016,65.133842 
	C189.188950,79.189445 192.721603,93.113869 196.364090,107.471191 
	C193.202591,107.471191 190.620529,107.471191 187.716568,107.471191 
	C187.033142,105.128494 186.313431,102.661430 185.565536,100.097725 
	C182.078384,100.097725 178.788803,100.097725 175.557388,100.097725 
	C175.313858,100.468445 175.057739,100.705093 174.987305,100.987961 
	C173.292007,107.797104 173.295593,107.797997 163.444611,107.326431 
	C162.992035,105.918678 162.985489,104.956833 162.986359,103.746277 
	C162.993774,103.497581 163.000000,103.000000 163.273499,102.992752 
	C163.729248,102.979126 163.911530,102.972733 164.093796,102.966354 
M178.995636,80.541092 
	C178.299500,84.341957 177.603363,88.142830 176.879074,92.097412 
	C179.306747,92.097412 181.177689,92.097412 183.519836,92.097412 
	C182.683273,87.712410 182.002213,83.705116 181.130249,79.739799 
	C180.626282,77.447960 179.787827,77.120300 178.995636,80.541092 
z"/>
<path fill="#0F0F0F" opacity="1.000000" stroke="none" 
	d="
M133.994034,107.557426 
	C128.159378,107.804047 131.880157,102.201836 128.907913,100.118546 
	C126.273323,100.118546 122.993195,100.118546 119.485069,100.118546 
	C118.833275,102.564789 118.205200,104.921974 117.506416,107.544571 
	C114.766403,107.544571 111.997734,107.544571 108.696472,107.544571 
	C112.312065,93.394417 115.867142,79.481079 119.504303,65.246506 
	C122.854584,65.246506 126.277206,65.246506 130.007767,65.246506 
	C131.958160,72.834373 133.935242,80.526054 135.512543,88.614609 
	C133.636017,90.193092 131.894241,91.163170 130.743454,92.604958 
	C128.929825,94.877228 128.383713,93.997330 127.881531,91.491257 
	C126.815353,86.694710 125.816177,82.277428 124.817009,77.860138 
	C124.491646,77.864609 124.166290,77.869080 123.840927,77.873550 
	C123.208229,82.719460 122.575523,87.565361 121.962662,92.776855 
	C122.282677,94.866287 122.582870,96.590126 123.050812,99.277321 
	C127.589668,94.232864 130.395691,96.053658 132.764938,100.343063 
	C133.173889,101.083450 134.225952,101.468636 134.950302,102.371338 
	C134.611115,104.335670 134.302582,105.946548 133.994034,107.557426 
z"/>
<path fill="#171717" opacity="1.000000" stroke="none" 
	d="
M94.072083,64.916687 
	C100.844391,64.916405 107.128387,64.916405 113.655197,64.916405 
	C113.655197,67.746033 113.655197,70.139099 113.655197,72.981918 
	C110.712700,72.981918 107.967255,72.981918 104.734985,72.981918 
	C104.734985,84.642693 104.734985,95.868309 104.734985,107.439514 
	C101.520607,107.439514 98.783798,107.439514 95.575821,107.439514 
	C95.575821,96.258675 95.575821,85.010269 95.575821,73.311348 
	C92.384407,73.311348 89.639595,73.311348 86.527054,73.311348 
	C86.527054,70.470230 86.527054,68.070770 86.527054,64.916962 
	C88.747818,64.916962 91.165802,64.916962 94.072083,64.916687 
z"/>
<path fill="#0E0E0E" opacity="1.000000" stroke="none" 
	d="
M147.165741,87.720963 
	C149.423691,83.011452 151.681641,78.301941 154.178604,73.093903 
	C149.345352,73.093903 145.081268,73.093903 140.489349,73.093903 
	C140.489349,70.366989 140.489349,67.972641 140.489349,65.244354 
	C148.361816,65.244354 156.274780,65.244354 164.827789,65.244354 
	C165.873642,75.496399 158.885345,82.913429 154.690643,91.662720 
	C151.794876,90.474846 149.480316,89.097908 147.165741,87.720963 
z"/>
<path fill="#181818" opacity="1.000000" stroke="none" 
	d="
M168.682678,141.790070 
	C168.242493,148.974380 167.130493,150.038162 159.971649,150.079285 
	C157.172287,150.095367 154.372772,150.081924 151.343002,150.081924 
	C151.343002,142.774399 151.343002,135.849045 151.343002,128.445969 
	C154.978714,128.445969 158.611710,128.077698 162.137177,128.536148 
	C166.892715,129.154572 168.413605,132.281052 167.298782,136.856522 
	C166.933838,138.354248 167.820480,140.156952 168.440826,141.826019 
	C168.746918,141.831863 168.682678,141.790070 168.682678,141.790070 
M162.873886,145.358063 
	C164.077560,138.190857 158.810944,142.395172 156.105774,140.993362 
	C156.105774,143.020065 156.105774,144.388702 156.105774,145.883881 
	C158.280502,145.883881 160.210037,145.883881 162.873886,145.358063 
M157.009674,132.954803 
	C156.458664,134.134857 155.907654,135.314911 155.145462,136.947235 
	C157.701950,136.947235 159.261887,137.220520 160.648773,136.848557 
	C161.533447,136.611298 162.161835,135.418488 162.905121,134.654099 
	C162.050537,134.085739 161.258087,133.349609 160.321472,133.002792 
	C159.588043,132.731216 158.676041,132.941925 157.009674,132.954803 
z"/>
<path fill="#161616" opacity="1.000000" stroke="none" 
	d="
M168.774811,141.858124 
	C169.518646,136.782288 170.561142,131.861206 175.825989,129.298981 
	C181.213608,126.677017 188.142990,128.933395 190.727036,134.147812 
	C193.497498,139.738419 191.553925,146.293503 186.264008,149.200287 
	C180.699066,152.258209 173.851868,150.379242 170.834503,144.915497 
	C170.282623,143.916138 169.959930,142.790207 169.107056,141.756378 
	C168.682678,141.790070 168.746918,141.831863 168.774811,141.858124 
M174.582901,138.630310 
	C174.580353,142.110825 175.720154,145.230698 179.416428,145.690643 
	C181.351791,145.931442 184.349808,144.900711 185.357559,143.417816 
	C186.517380,141.711151 186.788116,138.546890 185.987808,136.621323 
	C185.300690,134.968018 182.685516,133.516388 180.701218,133.137863 
	C177.463074,132.520203 175.501450,134.660919 174.582901,138.630310 
z"/>
<path fill="#171717" opacity="1.000000" stroke="none" 
	d="
M136.374725,128.077942 
	C143.729553,128.544861 148.158676,132.050201 148.880234,137.605148 
	C149.653625,143.559143 146.786972,148.358063 141.438644,150.062683 
	C135.305603,152.017441 129.844177,149.555603 127.682388,143.861847 
	C125.272453,137.514496 127.641479,131.610001 133.654434,129.009491 
	C134.413116,128.681366 135.202209,128.423660 136.374725,128.077942 
M141.962967,144.524261 
	C145.180313,139.290924 143.905731,133.512268 139.160904,133.219360 
	C136.973419,133.084305 133.491486,134.414062 132.705154,136.076859 
	C131.745773,138.105576 132.289230,141.579865 133.474121,143.710953 
	C135.141068,146.709030 138.348434,146.594009 141.962967,144.524261 
z"/>
<path fill="#161616" opacity="1.000000" stroke="none" 
	d="
M210.655396,148.028534 
	C209.623703,150.867737 206.653870,150.934250 204.683990,148.428467 
	C203.143341,146.468674 201.668549,144.457077 199.253342,141.263809 
	C198.976959,145.121475 198.819656,147.317337 198.642624,149.788300 
	C197.100845,149.788300 195.712784,149.788300 194.118637,149.788300 
	C194.118637,142.795898 194.118637,135.867889 194.118637,128.288757 
	C197.076675,128.288757 199.984314,128.175293 202.879288,128.318207 
	C206.296280,128.486893 210.250031,129.113602 210.797134,132.902878 
	C211.213852,135.789078 209.445724,138.990738 208.649597,142.052048 
	C208.059723,142.004807 207.469849,141.957565 206.879974,141.910324 
	C208.042542,143.848877 209.205093,145.787445 210.655396,148.028534 
M206.190063,136.361176 
	C205.892288,130.180634 201.613052,134.031570 198.973724,133.007477 
	C198.973724,134.944687 198.973724,136.355927 198.973724,138.510193 
	C201.468933,138.026260 203.629883,137.607162 206.190063,136.361176 
z"/>
<path fill="#141414" opacity="1.000000" stroke="none" 
	d="
M113.281052,140.965698 
	C112.054665,143.795197 111.286102,146.616379 110.420181,149.794922 
	C109.531960,149.794922 108.158791,149.794922 106.555695,149.794922 
	C106.555695,142.620819 106.555695,135.693069 106.555695,128.404053 
	C108.086617,128.296951 109.489059,128.198837 111.180435,128.080521 
	C111.373260,130.793198 111.545044,133.209869 111.737061,135.911148 
	C114.308609,135.911148 116.739098,135.911148 119.684074,135.911148 
	C119.788460,133.569641 119.895607,131.166046 120.018997,128.398117 
	C121.324783,128.302063 122.551346,128.211838 124.143219,128.094742 
	C124.143219,135.411667 124.143219,142.468414 124.143219,149.811111 
	C122.903679,149.891815 121.656967,149.972992 119.954208,150.083862 
	C119.954208,147.087433 119.954208,144.334229 119.954208,140.957352 
	C117.596443,140.957352 115.667664,140.957352 113.281052,140.965698 
z"/>
<path fill="#0F0F0F" opacity="1.000000" stroke="none" 
	d="
M146.962128,87.969345 
	C149.480316,89.097908 151.794876,90.474846 154.450241,91.923813 
	C153.959839,94.627457 153.128616,97.259087 152.655609,100.397461 
	C153.478012,101.890663 153.942230,102.877121 154.406448,103.863579 
	C154.775604,103.786308 155.144760,103.709038 155.513916,103.631760 
	C155.675858,102.486214 155.837799,101.340668 155.999741,100.195114 
	C158.101212,100.096718 160.217972,99.823372 162.294983,100.004883 
	C162.930893,100.060448 163.457764,101.363762 164.064178,102.531013 
	C163.911530,102.972733 163.729248,102.979126 163.111923,102.773529 
	C162.274231,102.613129 161.871597,102.664711 161.468964,102.716301 
	C161.972290,103.142525 162.475601,103.568756 162.978943,103.994980 
	C162.985489,104.956833 162.992035,105.918678 163.001282,107.241196 
	C156.600418,107.607246 150.196869,107.612640 143.878372,107.027008 
	C144.279037,106.173416 144.594650,105.910843 144.910248,105.648270 
	C144.272171,105.436279 143.634079,105.224289 142.674377,104.983292 
	C141.568588,104.612556 140.784409,104.270828 139.996857,103.583031 
	C139.977203,102.775833 139.960907,102.314713 139.944611,101.853592 
	C142.215912,97.308296 144.487198,92.763008 146.962128,87.969345 
M146.069366,99.385498 
	C146.640335,99.903168 147.211304,100.420837 147.782257,100.938499 
	C147.991745,100.374222 148.201233,99.809944 148.410721,99.245659 
	C147.626434,99.071716 146.842163,98.897774 146.069366,99.385498 
M145.516876,103.413513 
	C145.516876,103.413513 145.581863,103.522980 145.516876,103.413513 
z"/>
<path fill="#141414" opacity="1.000000" stroke="none" 
	d="
M101.713959,145.296906 
	C102.861610,146.896301 103.778252,148.220566 104.716721,149.576385 
	C97.060951,152.544220 96.446716,144.531906 91.520828,141.424713 
	C90.917114,144.435669 90.427246,146.878876 89.849007,149.762817 
	C88.865242,149.846786 87.627739,149.952438 85.752228,150.112534 
	C85.752228,143.415253 85.592735,136.960327 85.907722,130.528625 
	C85.960815,129.444580 88.061905,128.460831 89.216743,127.430740 
	C89.607941,127.737823 89.999146,128.044907 90.390350,128.351990 
	C90.390350,131.125092 90.390350,133.898209 90.390350,137.239502 
	C95.320824,134.237350 96.674515,126.987244 104.354156,128.403381 
	C101.494728,131.680389 98.879990,134.676987 96.086853,137.878036 
	C97.923607,140.309662 99.703278,142.665726 101.713959,145.296906 
z"/>
<path fill="#0E0E0E" opacity="1.000000" stroke="none" 
	d="
M127.948532,91.870522 
	C128.383713,93.997330 128.929825,94.877228 130.743454,92.604958 
	C131.894241,91.163170 133.636017,90.193092 135.458664,89.006027 
	C136.167007,90.102036 136.529449,91.203491 136.524323,92.723877 
	C134.334732,95.066414 135.137817,95.793694 137.394409,95.858582 
	C137.769928,96.959106 138.145432,98.059639 138.111176,99.547928 
	C136.807709,100.617592 135.914001,101.299500 135.010742,101.990189 
	C135.001175,101.998985 134.980942,102.017891 134.980942,102.017891 
	C134.225952,101.468636 133.173889,101.083450 132.764938,100.343063 
	C130.395691,96.053658 127.589668,94.232864 123.050812,99.277321 
	C122.582870,96.590126 122.282677,94.866287 122.395668,92.746231 
	C124.522072,92.190193 126.235306,92.030357 127.948532,91.870522 
z"/>
<path fill="#0E0E0E" opacity="1.000000" stroke="none" 
	d="
M139.740448,101.904564 
	C139.960907,102.314713 139.977203,102.775833 139.749756,103.775803 
	C139.331818,105.328468 139.157623,106.342285 138.983429,107.356102 
	C137.595322,107.489189 136.207230,107.622269 134.406586,107.656387 
	C134.302582,105.946548 134.611115,104.335670 134.950302,102.371338 
	C134.980942,102.017891 135.001175,101.998985 135.419632,101.996384 
	C136.930527,101.981567 138.022980,101.969345 139.115417,101.957123 
	C139.115417,101.957123 139.536285,101.955544 139.740448,101.904564 
z"/>
<path fill="#101010" opacity="1.000000" stroke="none" 
	d="
M139.262543,107.422607 
	C139.157623,106.342285 139.331818,105.328468 139.753113,104.121872 
	C140.784409,104.270828 141.568588,104.612556 142.729568,105.432030 
	C143.148087,106.208389 143.189804,106.507004 143.231522,106.805611 
	C142.001572,107.033447 140.771622,107.261284 139.262543,107.422607 
z"/>
<path fill="#0E0E0E" opacity="1.000000" stroke="none" 
	d="
M155.630157,100.105164 
	C155.837799,101.340668 155.675858,102.486214 155.513916,103.631760 
	C155.144760,103.709038 154.775604,103.786308 154.406448,103.863579 
	C153.942230,102.877121 153.478012,101.890663 153.007019,100.550644 
	C153.753677,100.136467 154.507126,100.075836 155.630157,100.105164 
z"/>
<path fill="#0F0F0F" opacity="1.000000" stroke="none" 
	d="
M139.038208,101.690620 
	C138.022980,101.969345 136.930527,101.981567 135.429199,101.987595 
	C135.914001,101.299500 136.807709,100.617592 138.092163,99.901459 
	C138.642288,100.386185 138.801651,100.905151 139.038208,101.690620 
z"/>
<path fill="#0F0F0F" opacity="1.000000" stroke="none" 
	d="
M137.391434,95.491013 
	C135.137817,95.793694 134.334732,95.066414 136.491760,93.071281 
	C137.014008,93.707649 137.201233,94.415543 137.391434,95.491013 
z"/>
<path fill="#0E0E0E" opacity="1.000000" stroke="none" 
	d="
M143.270325,106.779526 
	C143.189804,106.507004 143.148087,106.208389 143.051178,105.461037 
	C143.634079,105.224289 144.272171,105.436279 144.910248,105.648270 
	C144.594650,105.910843 144.279037,106.173416 143.633057,106.584442 
	C143.302673,106.732895 143.309128,106.753441 143.270325,106.779526 
z"/>
<path fill="#EEEEEE" opacity="1.000000" stroke="none" 
	d="
M179.021057,80.122177 
	C179.787827,77.120300 180.626282,77.447960 181.130249,79.739799 
	C182.002213,83.705116 182.683273,87.712410 183.519836,92.097412 
	C181.177689,92.097412 179.306747,92.097412 176.879074,92.097412 
	C177.603363,88.142830 178.299500,84.341957 179.021057,80.122177 
z"/>
<path fill="#0E0E0E" opacity="1.000000" stroke="none" 
	d="
M162.986359,103.746277 
	C162.475601,103.568756 161.972290,103.142525 161.468964,102.716301 
	C161.871597,102.664711 162.274231,102.613129 162.838440,102.780777 
	C163.000000,103.000000 162.993774,103.497581 162.986359,103.746277 
z"/>
<path fill="#E8E8E8" opacity="1.000000" stroke="none" 
	d="
M127.881531,91.491257 
	C126.235306,92.030357 124.522072,92.190193 122.375839,92.380646 
	C122.575523,87.565361 123.208229,82.719460 123.840927,77.873550 
	C124.166290,77.869080 124.491646,77.864609 124.817009,77.860138 
	C125.816177,82.277428 126.815353,86.694710 127.881531,91.491257 
z"/>
<path fill="#EBEBEB" opacity="1.000000" stroke="none" 
	d="
M162.506729,145.620972 
	C160.210037,145.883881 158.280502,145.883881 156.105774,145.883881 
	C156.105774,144.388702 156.105774,143.020065 156.105774,140.993362 
	C158.810944,142.395172 164.077560,138.190857 162.506729,145.620972 
z"/>
<path fill="#E6E6E6" opacity="1.000000" stroke="none" 
	d="
M157.426514,132.946579 
	C158.676041,132.941925 159.588043,132.731216 160.321472,133.002792 
	C161.258087,133.349609 162.050537,134.085739 162.905121,134.654099 
	C162.161835,135.418488 161.533447,136.611298 160.648773,136.848557 
	C159.261887,137.220520 157.701950,136.947235 155.145462,136.947235 
	C155.907654,135.314911 156.458664,134.134857 157.426514,132.946579 
z"/>
<path fill="#F4F4F4" opacity="1.000000" stroke="none" 
	d="
M174.662384,138.216766 
	C175.501450,134.660919 177.463074,132.520203 180.701218,133.137863 
	C182.685516,133.516388 185.300690,134.968018 185.987808,136.621323 
	C186.788116,138.546890 186.517380,141.711151 185.357559,143.417816 
	C184.349808,144.900711 181.351791,145.931442 179.416428,145.690643 
	C175.720154,145.230698 174.580353,142.110825 174.662384,138.216766 
z"/>
<path fill="#F7F7F7" opacity="1.000000" stroke="none" 
	d="
M141.635284,144.741760 
	C138.348434,146.594009 135.141068,146.709030 133.474121,143.710953 
	C132.289230,141.579865 131.745773,138.105576 132.705154,136.076859 
	C133.491486,134.414062 136.973419,133.084305 139.160904,133.219360 
	C143.905731,133.512268 145.180313,139.290924 141.635284,144.741760 
z"/>
<path fill="#F3F3F3" opacity="1.000000" stroke="none" 
	d="
M205.990448,136.774628 
	C203.629883,137.607162 201.468933,138.026260 198.973724,138.510193 
	C198.973724,136.355927 198.973724,134.944687 198.973724,133.007477 
	C201.613052,134.031570 205.892288,130.180634 205.990448,136.774628 
z"/>
<path fill="#0E0E0E" opacity="1.000000" stroke="none" 
	d="
M146.063629,99.054665 
	C146.842163,98.897774 147.626434,99.071716 148.410721,99.245659 
	C148.201233,99.809944 147.991745,100.374222 147.782257,100.938499 
	C147.211304,100.420837 146.640335,99.903168 146.063629,99.054665 
z"/>
<path fill="#0E0E0E" opacity="1.000000" stroke="none" 
	d="
M145.549377,103.468246 
	C145.581863,103.522980 145.516876,103.413513 145.549377,103.468246 
z"/>
</svg>